Argo (2012) CAM x264 AC3-BBnRG
 
http://www.imdb.com/title/tt1024648/

Format: Matroska
Format version: Version 2
File size: 601 MiB
Duration: 1h 51mn
Overall bit rate: 755 Kbps

Video
ID: 1
Format: AVC
Format/Info: Advanced Video Codec
Format profile: High@L3.0
Format settings, CABAC: Yes
Format settings, ReFrames: 6 frames
Codec ID: V_MPEG4/ISO/AVC
Duration: 1h 51mn
Bit rate: 622 Kbps
Width: 720 pixels
Height: 344 pixels
Display aspect ratio: 2.093
Frame rate mode: Variable
Frame rate: 23.976 fps
Color space: YUV
Chroma subsampling: 4:2:0
Bit depth: 8 bits
Scan type: Progressive
Bits/(Pixel*Frame): 0.105
Stream size: 487 MiB (81%)
Writing library: x264 core 112

Audio
ID: 2
Format: AC-3
Format/Info: Audio Coding 3
Mode extension: CM (complete main)
Codec ID: A_AC3
Duration: 1h 51mn
Bit rate mode: Constant
Bit rate: 128 Kbps
Channel(s): 2 channels
Channel positions: Front: L R
Sampling rate: 44.1 KHz
Bit depth: 16 bits
Compression mode: Lossy
Stream size: 102 MiB (17%)

Screens
 
http://imageshack.us/a/img715/5803/image100001.jpg
 
http://imageshack.us/a/img827/5149/image100002.jpg
 
http://imageshack.us/a/img685/9830/image100003.jpg
 
http://imageshack.us/a/img542/5633/image100004.jpg
 
http://imageshack.us/a/img197/9311/image100005.jpg